<svg width="261" height="247" viewBox="0 0 261 247" fill="none" xmlns="http://www.w3.org/2000/svg">
<path d="M130.1 72.2C130.1 71.8 129.9 71.5 129.7 71.3C107.8 48.3 77.8998 33.2 47.2998 25.3C82.5998 62.3 112.7 106.7 127.2 156.2C128.3 159.8 129 164 130.1 167.5C130.1 167.8 130.2 168.1 130.5 168.3V72.1H130.1V72.2Z" fill="url(#paint0_linear_2022_35)"/>
<path d="M130.5 158.7V71.8H130.1C130.1 71.5 129.9 71.2 129.7 71C107.8 48 77.8998 32.9 47.2998 25C47.2998 25 128.4 51.5 130.6 158.7H130.5Z" fill="url(#paint1_linear_2022_35)"/>
<path d="M130.5 47.6C143.645 47.6 154.3 36.9444 154.3 23.8C154.3 10.6556 143.645 0 130.5 0C117.356 0 106.7 10.6556 106.7 23.8C106.7 36.9444 117.356 47.6 130.5 47.6Z" fill="url(#paint2_radial_2022_35)"/>
<path d="M132.9 42.8C121.1 42.8 111.5 33.2 111.5 21.4C111.5 9.6 120.4 0.6 131.7 0C131.3 0 130.9 0 130.5 0C117.4 0 106.7 10.7 106.7 23.8C106.7 36.9 117.4 47.6 130.5 47.6C143.6 47.6 154.3 36.9 154.3 23.8C154.3 10.7 154.3 23 154.3 22.6C153.7 33.9 144.4 42.8 133 42.8H132.9Z" fill="url(#paint3_radial_2022_35)"/>
<path d="M131 72.2C131 71.8 131.2 71.5 131.4 71.3C153.3 48.3 183.2 33.2 213.8 25.3C178.5 62.3 148.4 106.7 133.9 156.2C132.8 159.8 132.1 164 131 167.5C131 167.8 130.9 168.1 130.6 168.3V72.1L131 72.2Z" fill="url(#paint4_linear_2022_35)"/>
<path d="M130.5 158.7V71.8L130.9 71.9C130.9 71.5 131.1 71.2 131.3 71C153.2 48 183.1 32.9 213.7 25C213.7 25 132.6 51.5 130.4 158.7H130.5Z" fill="url(#paint5_linear_2022_35)"/>
<path style="mix-blend-mode:overlay" d="M195.1 32.6C174.6 44.9 141.6 72.7 131.2 128V162C133.4 53.2 215.3 26.3 215.3 26.3C208.5 28.1 201.7 30.2 195.1 32.7V32.6Z" fill="url(#paint6_radial_2022_35)"/>
<path style="mix-blend-mode:overlay" d="M71.0001 37.5C91.0001 50.5 123 79.5 131.4 135.1L130.2 169.1C132 60.3 51.1001 30.4 51.1001 30.4C57.8001 32.4 64.5001 34.8 71.1001 37.5H71.0001Z" fill="url(#paint7_radial_2022_35)"/>
<path d="M4.3999 57.7C11.9999 66.3 13.6999 78.5 22.9999 85.8C31.1999 92.3 41.0999 93.4 50.8999 90C50.8999 90 38.0999 67.2 4.3999 57.6V57.7Z" fill="url(#paint8_linear_2022_35)"/>
<path d="M54.3999 64C48.5999 56.4 39.3999 52.8 29.8999 53.4C21.2999 53.9 13.1999 58.3 4.3999 57.6C38.0999 67.2 50.8999 90 50.8999 90C51.4999 89.3 46.7999 83.5 46.0999 82.6C43.0999 79.1 39.2999 76.3 36.2999 73.1C35.9999 72.8 35.6999 72.7 35.8999 72.2C42.2999 73.1 49.1999 73.9 55.6999 73.4C56.2999 73.4 58.6999 73.1 58.8999 72.6C59.2999 71.3 55.4999 65.3 54.4999 64H54.3999Z" fill="url(#paint9_linear_2022_35)"/>
<path d="M50 212C61.8 205.3 76.3 206.3 87.1 197.4C96.6 189.5 100.4 178.3 98.9 166.1C98.9 166.1 69.4 175.4 50 212Z" fill="url(#paint10_linear_2022_35)"/>
<path d="M69.6 155.7C59.4 160.5 52.9 170.3 51.3 181.4C49.8 191.5 52.9 202 50 212C69.3 175.3 98.9 166.1 98.9 166.1C98.2 165.2 90.3 169.3 89.1 169.9C84.3 172.5 80.2 176.3 75.7 178.9C75.3 179.1 75.1 179.4 74.5 179.2C77.1 172 79.7 164.2 80.7 156.6C80.7 155.9 81.1 153 80.6 152.8C79.2 152.1 71.3 155 69.6 155.8V155.7Z" fill="url(#paint11_linear_2022_35)"/>
<path d="M130.1 247C124.8 234.5 112.7 226.5 109.6 212.8C106.9 200.8 110.7 189.6 119.4 180.8C119.4 180.8 137.2 206.2 130.1 247Z" fill="url(#paint12_linear_2022_35)"/>
<path d="M148.9 190.4C154 200.4 153.2 212.2 147.7 221.9C142.7 230.9 133.9 237.2 130.1 247C137.1 206.2 119.4 180.8 119.4 180.8C120.5 180.5 124.3 188.5 124.8 189.8C127 194.8 128 200.3 129.9 205.1C130.1 205.5 130.1 205.9 130.6 206C133 198.7 135.6 190.9 139.4 184.3C139.8 183.7 141.2 181.2 141.9 181.3C143.5 181.6 147.9 188.7 148.8 190.4H148.9Z" fill="url(#paint13_linear_2022_35)"/>
<path d="M0 143C14.3 144 26.3 153.3 41 151.7C53.9 150.3 63.7 142.6 69.5 131.1C69.5 131.1 38.2 122.1 0 143Z" fill="url(#paint14_linear_2022_35)"/>
<path d="M49.9 105.1C38.2 103.4 26.8 108.3 18.9 117C11.7 125 8.4 136 0 143C38.2 122.1 69.5 131.1 69.5 131.1C69.5 130 60.2 128.9 58.8 128.8C53 128.3 47.3 129.2 41.8 128.9C41.3 128.9 40.9 129 40.6 128.5C47.1 123.7 53.9 118.4 59.2 112.3C59.7 111.7 61.6 109.4 61.3 108.8C60.5 107.3 51.9 105.3 49.9 105V105.1Z" fill="url(#paint15_linear_2022_35)"/>
<path d="M255.9 57.7C248.3 66.3 246.6 78.5 237.3 85.8C229.1 92.3 219.2 93.4 209.4 90C209.4 90 222.2 67.2 255.9 57.6V57.7Z" fill="url(#paint16_linear_2022_35)"/>
<path d="M205.9 64C211.7 56.4 220.9 52.8 230.4 53.4C239 53.9 247.1 58.3 255.9 57.6C222.2 67.2 209.4 90 209.4 90C208.8 89.3 213.5 83.5 214.2 82.6C217.2 79.1 221 76.3 224 73.1C224.3 72.8 224.6 72.7 224.4 72.2C218 73.1 211.1 73.9 204.6 73.4C204 73.4 201.6 73.1 201.4 72.6C201 71.3 204.8 65.3 205.8 64H205.9Z" fill="url(#paint17_linear_2022_35)"/>
<path d="M210.4 212C198.6 205.3 184.1 206.3 173.3 197.4C163.8 189.5 160 178.3 161.5 166.1C161.5 166.1 191 175.4 210.4 212Z" fill="url(#paint18_linear_2022_35)"/>
<path d="M190.7 155.7C200.9 160.5 207.4 170.3 209 181.4C210.5 191.5 207.4 202 210.3 212C191 175.3 161.4 166.1 161.4 166.1C162.1 165.2 170 169.3 171.2 169.9C176 172.5 180.1 176.3 184.6 178.9C185 179.1 185.2 179.4 185.8 179.2C183.2 172 180.6 164.2 179.6 156.6C179.6 155.9 179.2 153 179.7 152.8C181.1 152.1 189 155 190.7 155.8V155.7Z" fill="url(#paint19_linear_2022_35)"/>
<path d="M260.3 143C246 144 234 153.3 219.3 151.7C206.4 150.3 196.6 142.6 190.8 131.1C190.8 131.1 222.1 122.1 260.3 143Z" fill="url(#paint20_linear_2022_35)"/>
<path d="M210.4 105.1C222.1 103.4 233.5 108.3 241.4 117C248.6 125 251.9 136 260.3 143C222.1 122.1 190.8 131.1 190.8 131.1C190.8 130 200.1 128.9 201.5 128.8C207.3 128.3 213 129.2 218.5 128.9C219 128.9 219.4 129 219.7 128.5C213.2 123.7 206.4 118.4 201.1 112.3C200.6 111.7 198.7 109.4 199 108.8C199.8 107.3 208.4 105.3 210.4 105V105.1Z" fill="url(#paint21_linear_2022_35)"/>
<defs>
<linearGradient id="paint0_linear_2022_35" x1="84.9998" y1="83.8" x2="118.3" y2="109.7" gradientUnits="userSpaceOnUse">
<stop stop-color="#00B4EA"/>
<stop offset="1" stop-color="#003CC7"/>
</linearGradient>
<linearGradient id="paint1_linear_2022_35" x1="87.1998" y1="80.6" x2="120.6" y2="106.5" gradientUnits="userSpaceOnUse">
<stop stop-color="#003CC7"/>
<stop offset="1" stop-color="#00B4EA"/>
</linearGradient>
<radialGradient id="paint2_radial_2022_35" cx="0" cy="0" r="1" gradientUnits="userSpaceOnUse" gradientTransform="translate(140.7 20.6) scale(35.2 35.2)">
<stop stop-color="#00B4EA"/>
<stop offset="1" stop-color="#003CC7"/>
</radialGradient>
<radialGradient id="paint3_radial_2022_35" cx="0" cy="0" r="1" gradientUnits="userSpaceOnUse" gradientTransform="translate(126.2 42.1) scale(29.4 29.4)">
<stop stop-color="#00B4EA"/>
<stop offset="1" stop-color="#003CC7"/>
</radialGradient>
<linearGradient id="paint4_linear_2022_35" x1="176.1" y1="83.8" x2="142.8" y2="109.7" gradientUnits="userSpaceOnUse">
<stop stop-color="#00B4EA"/>
<stop offset="1" stop-color="#003CC7"/>
</linearGradient>
<linearGradient id="paint5_linear_2022_35" x1="173.9" y1="80.6" x2="140.5" y2="106.5" gradientUnits="userSpaceOnUse">
<stop stop-color="#003CC7"/>
<stop offset="1" stop-color="#00B4EA"/>
</linearGradient>
<radialGradient id="paint6_radial_2022_35" cx="0" cy="0" r="1" gradientUnits="userSpaceOnUse" gradientTransform="translate(161.4 73.8) scale(55.8 55.8)">
<stop stop-color="white"/>
<stop offset="1" stop-color="white" stop-opacity="0"/>
</radialGradient>
<radialGradient id="paint7_radial_2022_35" cx="0" cy="0" r="1" gradientUnits="userSpaceOnUse" gradientTransform="translate(103.24 79.8163) rotate(-177.9) scale(55.8 55.8)">
<stop stop-color="white"/>
<stop offset="1" stop-color="white" stop-opacity="0"/>
</radialGradient>
<linearGradient id="paint8_linear_2022_35" x1="37.4999" y1="100.7" x2="24.8999" y2="66.4" gradientUnits="userSpaceOnUse">
<stop stop-color="#64AB12"/>
<stop offset="1" stop-color="#1D7354"/>
</linearGradient>
<linearGradient id="paint9_linear_2022_35" x1="50.3999" y1="82.1" x2="35.7999" y2="67.3" gradientUnits="userSpaceOnUse">
<stop stop-color="#1D7354"/>
<stop offset="1" stop-color="#64AB12"/>
</linearGradient>
<linearGradient id="paint10_linear_2022_35" x1="107.617" y1="185.692" x2="64.9247" y2="191.748" gradientUnits="userSpaceOnUse">
<stop stop-color="#64AB12"/>
<stop offset="1" stop-color="#1D7354"/>
</linearGradient>
<linearGradient id="paint11_linear_2022_35" x1="89.2785" y1="166.152" x2="68.4871" y2="179.317" gradientUnits="userSpaceOnUse">
<stop stop-color="#1D7354"/>
<stop offset="1" stop-color="#64AB12"/>
</linearGradient>
<linearGradient id="paint12_linear_2022_35" x1="101.158" y1="189.625" x2="131.377" y2="220.514" gradientUnits="userSpaceOnUse">
<stop stop-color="#64AB12"/>
<stop offset="1" stop-color="#1D7354"/>
</linearGradient>
<linearGradient id="paint13_linear_2022_35" x1="127.609" y1="185.332" x2="136.05" y2="208.449" gradientUnits="userSpaceOnUse">
<stop stop-color="#1D7354"/>
<stop offset="1" stop-color="#64AB12"/>
</linearGradient>
<linearGradient id="paint14_linear_2022_35" x1="66.5114" y1="152.926" x2="25.5259" y2="133.476" gradientUnits="userSpaceOnUse">
<stop stop-color="#64AB12"/>
<stop offset="1" stop-color="#1D7354"/>
</linearGradient>
<linearGradient id="paint15_linear_2022_35" x1="61.8037" y1="125.165" x2="35.8557" y2="124.727" gradientUnits="userSpaceOnUse">
<stop stop-color="#1D7354"/>
<stop offset="1" stop-color="#64AB12"/>
</linearGradient>
<linearGradient id="paint16_linear_2022_35" x1="222.8" y1="100.7" x2="235.4" y2="66.4" gradientUnits="userSpaceOnUse">
<stop stop-color="#64AB12"/>
<stop offset="1" stop-color="#1D7354"/>
</linearGradient>
<linearGradient id="paint17_linear_2022_35" x1="209.9" y1="82.1" x2="224.5" y2="67.3" gradientUnits="userSpaceOnUse">
<stop stop-color="#1D7354"/>
<stop offset="1" stop-color="#64AB12"/>
</linearGradient>
<linearGradient id="paint18_linear_2022_35" x1="152.643" y1="184.48" x2="195.432" y2="190.516" gradientUnits="userSpaceOnUse">
<stop stop-color="#64AB12"/>
<stop offset="1" stop-color="#1D7354"/>
</linearGradient>
<linearGradient id="paint19_linear_2022_35" x1="170.981" y1="164.941" x2="191.772" y2="178.106" gradientUnits="userSpaceOnUse">
<stop stop-color="#1D7354"/>
<stop offset="1" stop-color="#64AB12"/>
</linearGradient>
<linearGradient id="paint20_linear_2022_35" x1="193.784" y1="151.821" x2="234.77" y2="132.371" gradientUnits="userSpaceOnUse">
<stop stop-color="#64AB12"/>
<stop offset="1" stop-color="#1D7354"/>
</linearGradient>
<linearGradient id="paint21_linear_2022_35" x1="198.492" y1="124.06" x2="224.44" y2="123.622" gradientUnits="userSpaceOnUse">
<stop stop-color="#1D7354"/>
<stop offset="1" stop-color="#64AB12"/>
</linearGradient>
</defs>
</svg>
